<svg width="36" height="36" viewBox="0 0 36 36" fill="none" xmlns="http://www.w3.org/2000/svg">
<path fill-rule="evenodd" clip-rule="evenodd" d="M18 27.9C12.5323 27.9 8.09997 23.4676 8.09997 18C8.09997 12.5323 12.5323 8.09996 18 8.09996C23.4676 8.09996 27.9 12.5323 27.9 18C27.9 23.4676 23.4676 27.9 18 27.9ZM18 26.1C22.4735 26.1 26.1 22.4735 26.1 18C26.1 13.5265 22.4735 9.89996 18 9.89996C13.5265 9.89996 9.89997 13.5265 9.89997 18C9.89997 22.4735 13.5265 26.1 18 26.1ZM20.9636 14.6636L16.2 19.4272L14.1364 17.3636L12.8636 18.6364L16.2 21.9728L22.2364 15.9364L20.9636 14.6636Z" fill="#27AE60"/>
</svg>
