<svg width="36" height="36" viewBox="0 0 36 36" fill="none" xmlns="http://www.w3.org/2000/svg">
<path fill-rule="evenodd" clip-rule="evenodd" d="M18.9924 9.62648C19.9551 9.15523 20.795 9.00001 22.0979 9.00003C25.4322 9.01384 27.9 11.8259 27.9 15.4079C27.9 18.142 26.3755 20.7831 23.536 23.3369C22.0456 24.6774 20.1426 26.004 18.7798 26.7097L18 27.1135L17.2202 26.7097C15.8574 26.004 13.9544 24.6774 12.464 23.3369C9.62445 20.7831 8.1 18.142 8.1 15.4079C8.1 11.7876 10.5448 9.00002 13.9091 9.00002C15.1652 9.00002 16.0482 9.16991 17.0296 9.65534C17.3713 9.82434 17.6924 10.0248 17.991 10.2562C18.3015 10.0111 18.6359 9.80095 18.9924 9.62648Z" fill="black"/>
</svg>
